{
	"asset":{
		"generator":"Khronos glTF Blender I/O v4.0.44",
		"version":"2.0"
	},
	"extensionsUsed":[
		"KHR_materials_specular",
		"KHR_materials_ior"
	],
	"scene":0,
	"scenes":[
		{
			"name":"Scene",
			"nodes":[
				0,
				1,
				2
			]
		}
	],
	"nodes":[
		{
			"mesh":0,
			"name":"TorusKnot",
			"rotation":[
				-0.05121321231126785,
				0.018652116879820824,
				-0.15250521898269653,
				0.9867985844612122
			],
			"scale":[
				0.4953073263168335,
				0.4953072667121887,
				0.4953073263168335
			],
			"translation":[
				0.0025221144314855337,
				0.026539554819464684,
				-0.008994607254862785
			]
		},
		{
			"mesh":1,
			"name":"TorusKnot.001",
			"rotation":[
				-0.2463715821504593,
				-0.6695355176925659,
				-0.34807512164115906,
				0.6081669330596924
			],
			"scale":[
				0.4953072965145111,
				0.4953072667121887,
				0.4953072965145111
			],
			"translation":[
				0.43152904510498047,
				0.33875977993011475,
				0.29398587346076965
			]
		},
		{
			"mesh":2,
			"name":"TorusKnot.002",
			"rotation":[
				0.36387255787849426,
				-0.5833563804626465,
				-0.0030560989398509264,
				0.7261423468589783
			],
			"scale":[
				0.4953072667121887,
				0.4953072667121887,
				0.4953072965145111
			],
			"translation":[
				0.5095804333686829,
				0.23339156806468964,
				0.08428329229354858
			]
		}
	],
	"materials":[
		{
			"doubleSided":true,
			"extensions":{
				"KHR_materials_specular":{
					"specularColorFactor":[
						2.0,
						2.0,
						2.0
					]
				},
				"KHR_materials_ior":{
					"ior":1.4500000476837158
				}
			},
			"name":"metal",
			"pbrMetallicRoughness":{
				"baseColorFactor":[
					0.800000011920929,
					0.800000011920929,
					0.800000011920929,
					1
				],
				"roughnessFactor":0
			}
		}
	],
	"meshes":[
		{
			"name":"TorusKnot",
			"primitives":[
				{
					"attributes":{
						"POSITION":0,
						"NORMAL":1
					},
					"indices":2,
					"material":0
				}
			]
		},
		{
			"name":"TorusKnot.001",
			"primitives":[
				{
					"attributes":{
						"POSITION":3,
						"NORMAL":4
					},
					"indices":5,
					"material":0
				}
			]
		},
		{
			"name":"TorusKnot.002",
			"primitives":[
				{
					"attributes":{
						"POSITION":6,
						"NORMAL":7
					},
					"indices":8,
					"material":0
				}
			]
		}
	],
	"accessors":[
		{
			"bufferView":0,
			"componentType":5126,
			"count":10240,
			"max":[
				2.1071524620056152,
				14.872163772583008,
				28.883726119995117
			],
			"min":[
				-3.0435643196105957,
				-14.855109214782715,
				-28.89607048034668
			],
			"type":"VEC3"
		},
		{
			"bufferView":1,
			"componentType":5126,
			"count":10240,
			"type":"VEC3"
		},
		{
			"bufferView":2,
			"componentType":5123,
			"count":61440,
			"type":"SCALAR"
		},
		{
			"bufferView":3,
			"componentType":5126,
			"count":10240,
			"max":[
				4.819164752960205,
				21.135622024536133,
				14.714984893798828
			],
			"min":[
				-2.5505425930023193,
				-21.039121627807617,
				-14.671371459960938
			],
			"type":"VEC3"
		},
		{
			"bufferView":4,
			"componentType":5126,
			"count":10240,
			"type":"VEC3"
		},
		{
			"bufferView":5,
			"componentType":5123,
			"count":61440,
			"type":"SCALAR"
		},
		{
			"bufferView":6,
			"componentType":5126,
			"count":10240,
			"max":[
				5.400959491729736,
				11.326733589172363,
				5.476253032684326
			],
			"min":[
				-15.054667472839355,
				-8.456244468688965,
				-5.137035369873047
			],
			"type":"VEC3"
		},
		{
			"bufferView":7,
			"componentType":5126,
			"count":10240,
			"type":"VEC3"
		},
		{
			"bufferView":8,
			"componentType":5123,
			"count":61440,
			"type":"SCALAR"
		}
	],
	"bufferViews":[
		{
			"buffer":0,
			"byteLength":122880,
			"byteOffset":0,
			"target":34962
		},
		{
			"buffer":0,
			"byteLength":122880,
			"byteOffset":122880,
			"target":34962
		},
		{
			"buffer":0,
			"byteLength":122880,
			"byteOffset":245760,
			"target":34963
		},
		{
			"buffer":0,
			"byteLength":122880,
			"byteOffset":368640,
			"target":34962
		},
		{
			"buffer":0,
			"byteLength":122880,
			"byteOffset":491520,
			"target":34962
		},
		{
			"buffer":0,
			"byteLength":122880,
			"byteOffset":614400,
			"target":34963
		},
		{
			"buffer":0,
			"byteLength":122880,
			"byteOffset":737280,
			"target":34962
		},
		{
			"buffer":0,
			"byteLength":122880,
			"byteOffset":860160,
			"target":34962
		},
		{
			"buffer":0,
			"byteLength":122880,
			"byteOffset":983040,
			"target":34963
		}
	],
	"buffers":[
		{
			"byteLength":1105920,
			"uri":"Organic_Loops.bin"
		}
	]
}
